# xmcd CD database file
#
# Track frame offsets:
#	150
#	14016
#	29661
#	45241
#	58108
#	67930
#	80582
#	93485
#
# Disc length: 1400 seconds
#
# Revision: 0
# Processed by: cddbd v1.5.2PL0 Copyright (c) Steve Scherf et al.
# Submitted via: CDex 1.70beta2
#
DISCID=64057608
DTITLE=Louis Armstrong le chanteur 1926-1961 - Compilation jazz magazine 2012
DYEAR=2012
DGENRE=Jazz
TTITLE0=Louis Armstrong and Lil's Hot Shots - Georgia Bo Bo
TTITLE1=Louis Armstrong Hot Five - Squeeze Me
TTITLE2=Louis Armstrong - Laughin' Louie
TTITLE3=Mills Brothers and Louis Armstrong - Darling Nelly Gray
TTITLE4=Louis Armstrong - (I've Got) The Heart Full of Rhythm
TTITLE5=	 - Going To Shout All Over God's
TTITLE6=	 - 2:19 Blues (685)
TTITLE7=	 - Remember Who Your Are
EXTD=YEAR: 2012
EXTT0=
EXTT1=
EXTT2=
EXTT3=
EXTT4=
EXTT5=
EXTT6=
EXTT7=
PLAYORDER=
